<svg xmlns="http://www.w3.org/2000/svg" width="1200" height="1200" viewBox="0 0 1200 1200">
  <defs>
    <radialGradient id="bg" cx="45%" cy="32%">
      <stop offset="0%" stop-color="#0d1525"/>
      <stop offset="50%" stop-color="#060912"/>
      <stop offset="100%" stop-color="#020408"/>
    </radialGradient>
    <linearGradient id="grad" x1="0" y1="0" x2="1" y2="1">
      <stop offset="0%" stop-color="#6366f1"/>
      <stop offset="100%" stop-color="#a78bfa"/>
    </linearGradient>
    <filter id="g" x="-80%" y="-80%" width="260%" height="260%">
      <feGaussianBlur stdDeviation="6"/>
      <feMerge><feMergeNode/><feMergeNode in="SourceGraphic"/></feMerge>
    </filter>
  </defs>

  <!-- Background -->
  <rect width="1200" height="1200" fill="#060912"/>
  <rect width="1200" height="1200" fill="url(#bg)"/>

  <!-- Grid -->
  <g stroke="#1a2744" stroke-width="0.3">
    <line x1="0" y1="0" x2="0" y2="1200"/><line x1="40" y1="0" x2="40" y2="1200"/>
    <line x1="80" y1="0" x2="80" y2="1200"/><line x1="120" y1="0" x2="120" y2="1200"/>
    <line x1="160" y1="0" x2="160" y2="1200"/><line x1="200" y1="0" x2="200" y2="1200"/>
    <line x1="240" y1="0" x2="240" y2="1200"/><line x1="280" y1="0" x2="280" y2="1200"/>
    <line x1="320" y1="0" x2="320" y2="1200"/><line x1="360" y1="0" x2="360" y2="1200"/>
    <line x1="400" y1="0" x2="400" y2="1200"/><line x1="440" y1="0" x2="440" y2="1200"/>
    <line x1="480" y1="0" x2="480" y2="1200"/><line x1="520" y1="0" x2="520" y2="1200"/>
    <line x1="560" y1="0" x2="560" y2="1200"/><line x1="600" y1="0" x2="600" y2="1200"/>
    <line x1="640" y1="0" x2="640" y2="1200"/><line x1="680" y1="0" x2="680" y2="1200"/>
    <line x1="720" y1="0" x2="720" y2="1200"/><line x1="760" y1="0" x2="760" y2="1200"/>
    <line x1="800" y1="0" x2="800" y2="1200"/><line x1="840" y1="0" x2="840" y2="1200"/>
    <line x1="880" y1="0" x2="880" y2="1200"/><line x1="920" y1="0" x2="920" y2="1200"/>
    <line x1="960" y1="0" x2="960" y2="1200"/><line x1="1000" y1="0" x2="1000" y2="1200"/>
    <line x1="1040" y1="0" x2="1040" y2="1200"/><line x1="1080" y1="0" x2="1080" y2="1200"/>
    <line x1="1120" y1="0" x2="1120" y2="1200"/><line x1="1160" y1="0" x2="1160" y2="1200"/>
    <line x1="0" y1="0" x2="1200" y2="0"/><line x1="0" y1="40" x2="1200" y2="40"/>
    <line x1="0" y1="80" x2="1200" y2="80"/><line x1="0" y1="120" x2="1200" y2="120"/>
    <line x1="0" y1="160" x2="1200" y2="160"/><line x1="0" y1="200" x2="1200" y2="200"/>
    <line x1="0" y1="240" x2="1200" y2="240"/><line x1="0" y1="280" x2="1200" y2="280"/>
    <line x1="0" y1="320" x2="1200" y2="320"/><line x1="0" y1="360" x2="1200" y2="360"/>
    <line x1="0" y1="400" x2="1200" y2="400"/><line x1="0" y1="440" x2="1200" y2="440"/>
    <line x1="0" y1="480" x2="1200" y2="480"/><line x1="0" y1="520" x2="1200" y2="520"/>
    <line x1="0" y1="560" x2="1200" y2="560"/><line x1="0" y1="600" x2="1200" y2="600"/>
    <line x1="0" y1="640" x2="1200" y2="640"/><line x1="0" y1="680" x2="1200" y2="680"/>
    <line x1="0" y1="720" x2="1200" y2="720"/><line x1="0" y1="760" x2="1200" y2="760"/>
    <line x1="0" y1="800" x2="1200" y2="800"/><line x1="0" y1="840" x2="1200" y2="840"/>
    <line x1="0" y1="880" x2="1200" y2="880"/><line x1="0" y1="920" x2="1200" y2="920"/>
    <line x1="0" y1="960" x2="1200" y2="960"/><line x1="0" y1="1000" x2="1200" y2="1000"/>
    <line x1="0" y1="1040" x2="1200" y2="1040"/><line x1="0" y1="1080" x2="1200" y2="1080"/>
    <line x1="0" y1="1120" x2="1200" y2="1120"/><line x1="0" y1="1160" x2="1200" y2="1160"/>
  </g>

  <!-- ===== CRYSTAL at (600, 420) scale=0.185 ===== -->
  <g transform="translate(600,420) scale(0.185)">
    <!-- Back facets -->
    <polygon points="256,80 120,240 256,200" fill="rgba(99,102,241,0.10)" stroke="rgba(99,102,241,0.20)" stroke-width="1"/>
    <polygon points="256,80 392,240 256,200" fill="rgba(99,102,241,0.06)" stroke="rgba(99,102,241,0.14)" stroke-width="1"/>
    <polygon points="256,80 120,240 80,120" fill="rgba(139,92,246,0.08)" stroke="rgba(139,92,246,0.18)" stroke-width="1"/>
    <polygon points="256,80 392,240 432,120" fill="rgba(139,92,246,0.06)" stroke="rgba(139,92,246,0.14)" stroke-width="1"/>
    <polygon points="256,440 120,240 256,200" fill="rgba(99,102,241,0.07)" stroke="rgba(99,102,241,0.15)" stroke-width="1"/>
    <polygon points="256,440 392,240 256,200" fill="rgba(99,102,241,0.04)" stroke="rgba(99,102,241,0.10)" stroke-width="1"/>
    <polygon points="256,440 120,240 80,120" fill="rgba(139,92,246,0.06)" stroke="rgba(139,92,246,0.14)" stroke-width="1"/>
    <polygon points="256,440 392,240 432,120" fill="rgba(139,92,246,0.04)" stroke="rgba(139,92,246,0.10)" stroke-width="1"/>
    <polygon points="120,240 80,120 60,260" fill="rgba(99,102,241,0.06)" stroke="rgba(139,92,246,0.15)" stroke-width="1"/>
    <polygon points="392,240 432,120 460,260" fill="rgba(139,92,246,0.06)" stroke="rgba(139,92,246,0.15)" stroke-width="1"/>
    <!-- Front facets -->
    <g filter="url(#g)">
      <polygon points="256,80 120,240 256,280" fill="rgba(129,140,248,0.28)" stroke="rgba(129,140,248,0.50)" stroke-width="1.2"/>
      <polygon points="256,80 392,240 256,280" fill="rgba(167,139,250,0.22)" stroke="rgba(167,139,250,0.40)" stroke-width="1.2"/>
      <polygon points="256,80 120,240 60,260" fill="rgba(129,140,248,0.20)" stroke="rgba(129,140,248,0.38)" stroke-width="1.2"/>
      <polygon points="256,80 392,240 460,260" fill="rgba(167,139,250,0.18)" stroke="rgba(167,139,250,0.34)" stroke-width="1.2"/>
      <polygon points="256,440 120,240 256,280" fill="rgba(129,140,248,0.18)" stroke="rgba(129,140,248,0.34)" stroke-width="1.2"/>
      <polygon points="256,440 392,240 256,280" fill="rgba(167,139,250,0.14)" stroke="rgba(167,139,250,0.28)" stroke-width="1.2"/>
      <polygon points="256,440 120,240 60,260" fill="rgba(129,140,248,0.14)" stroke="rgba(129,140,248,0.28)" stroke-width="1.2"/>
      <polygon points="256,440 392,240 460,260" fill="rgba(167,139,250,0.12)" stroke="rgba(167,139,250,0.24)" stroke-width="1.2"/>
      <polygon points="120,240 60,260 200,280" fill="rgba(129,140,248,0.14)" stroke="rgba(167,139,250,0.26)" stroke-width="1.2"/>
      <polygon points="392,240 460,260 312,280" fill="rgba(167,139,250,0.12)" stroke="rgba(167,139,250,0.24)" stroke-width="1.2"/>
      <!-- N letter -->
      <text x="256" y="275" text-anchor="middle" dominant-baseline="central" font-family="Inter,sans-serif" font-weight="800" font-size="140" fill="#e0e7ff">N</text>
    </g>
    <!-- Wireframe -->
    <polygon points="256,80 256,440" fill="none" stroke="rgba(129,140,248,0.12)" stroke-width="1"/>
    <polygon points="120,240 392,240" fill="none" stroke="rgba(129,140,248,0.12)" stroke-width="1"/>
  </g>

  <!-- ===== CONNECTORS ===== -->
  <!-- Agent positions: (angle, dist) -->
  <!-- 0:Hermes 270/230, 1:OpenClaw 330/230, 2:Claude 30/230, 3:Codex 80/230, 4:Cursor 135/230, 5:Kilo 190/230, 6:Cline 240/230, 7:+more 10/260 -->
  <g fill="none" stroke="#6366f1" stroke-width="2.2" stroke-opacity="0.4" stroke-linecap="round">
    <!-- Hermes: 600,190 -->
    <path d="M600,420 Q600,305 600,190"/>
    <!-- OpenClaw: 799,305 -->
    <path d="M600,420 Q700,363 799,305"/>
    <!-- Claude Code: 799,535 -->
    <path d="M600,420 Q700,478 799,535"/>
    <!-- Codex: 640,646 -->
    <path d="M600,420 Q620,533 640,646"/>
    <!-- Cursor: 423,583 -->
    <path d="M600,420 Q512,502 423,583"/>
    <!-- Kilo Code: 294,499 -->
    <path d="M600,420 Q447,460 294,499"/>
    <!-- Cline: 268,325 -->
    <path d="M600,420 Q434,373 268,325"/>
    <!-- +more: 218,190 -->
    <path d="M600,420 Q409,305 218,190"/>
  </g>

  <!-- ===== AGENT NODES ===== -->
  <!-- Hermes: top (600,190) -->
  <circle cx="600" cy="190" r="28" fill="#0f1a3a" stroke="#6366f1" stroke-width="1.8"/>
  <text x="600" y="195" text-anchor="middle" font-family="sans-serif" font-weight="700" font-size="13" fill="#a78bfa">HM</text>
  <text x="600" y="230" text-anchor="middle" font-family="Inter,sans-serif" font-size="13" font-weight="500" fill="#94a3b8">Hermes</text>

  <!-- OpenClaw: right-upper (799,305) -->
  <circle cx="799" cy="305" r="28" fill="#0f1a3a" stroke="#6366f1" stroke-width="1.8"/>
  <text x="799" y="310" text-anchor="middle" font-family="sans-serif" font-weight="700" font-size="12" fill="#a78bfa">OC</text>
  <text x="799" y="345" text-anchor="middle" font-family="Inter,sans-serif" font-size="13" font-weight="500" fill="#94a3b8">OpenClaw</text>

  <!-- Claude Code: right-lower (799,535) -->
  <circle cx="799" cy="535" r="28" fill="#0f1a3a" stroke="#6366f1" stroke-width="1.8"/>
  <text x="799" y="540" text-anchor="middle" font-family="sans-serif" font-weight="700" font-size="12" fill="#f97316">CC</text>
  <text x="799" y="575" text-anchor="middle" font-family="Inter,sans-serif" font-size="13" font-weight="500" fill="#94a3b8">Claude Code</text>

  <!-- Codex: bottom-right (640,646) -->
  <circle cx="640" cy="646" r="28" fill="#0f1a3a" stroke="#6366f1" stroke-width="1.8"/>
  <text x="640" y="651" text-anchor="middle" font-family="monospace" font-weight="700" font-size="13" fill="#10b981">&gt;_</text>
  <text x="640" y="686" text-anchor="middle" font-family="Inter,sans-serif" font-size="13" font-weight="500" fill="#94a3b8">Codex</text>

  <!-- Cursor: bottom-left (423,583) -->
  <circle cx="423" cy="583" r="28" fill="#0f1a3a" stroke="#6366f1" stroke-width="1.8"/>
  <text x="423" y="588" text-anchor="middle" font-family="monospace" font-weight="700" font-size="14" fill="#ec4899">C</text>
  <text x="423" y="623" text-anchor="middle" font-family="Inter,sans-serif" font-size="13" font-weight="500" fill="#94a3b8">Cursor</text>

  <!-- Kilo Code: left-mid (294,499) -->
  <circle cx="294" cy="499" r="28" fill="#0f1a3a" stroke="#6366f1" stroke-width="1.8"/>
  <text x="294" y="504" text-anchor="middle" font-family="sans-serif" font-weight="800" font-size="14" fill="#6366f1">K</text>
  <text x="294" y="539" text-anchor="middle" font-family="Inter,sans-serif" font-size="13" font-weight="500" fill="#94a3b8">Kilo Code</text>

  <!-- Cline: left-upper (268,325) -->
  <circle cx="268" cy="325" r="28" fill="#0f1a3a" stroke="#6366f1" stroke-width="1.8"/>
  <text x="268" y="331" text-anchor="middle" font-family="monospace" font-weight="700" font-size="11" fill="#8b5cf6">CL</text>
  <text x="268" y="365" text-anchor="middle" font-family="Inter,sans-serif" font-size="13" font-weight="500" fill="#94a3b8">Cline</text>

  <!-- +more: top-left (218,190) -->
  <circle cx="218" cy="190" r="28" fill="#0f1a3a" stroke="#6366f1" stroke-width="1.8"/>
  <text x="218" y="196" text-anchor="middle" font-family="Inter,sans-serif" font-weight="700" font-size="16" fill="#818cf8">+</text>
  <text x="218" y="230" text-anchor="middle" font-family="Inter,sans-serif" font-size="13" font-weight="500" fill="#94a3b8">+ more</text>

  <!-- ===== TEXT ===== -->
  <!-- Badge -->
  <rect x="460" y="712" width="280" height="26" rx="13" fill="#6366f1" fill-opacity="0.08" stroke="#6366f1" stroke-width="1" stroke-opacity="0.15"/>
  <text x="600" y="730" text-anchor="middle" fill="#818cf8" font-family="Inter,sans-serif" font-size="12" font-weight="600" letter-spacing="0.5">✦ Universal Memory Layer</text>

  <!-- Headline -->
  <text x="600" y="792" text-anchor="middle" fill="#f1f5f9" font-family="Inter,sans-serif" font-size="54" font-weight="800" letter-spacing="-1.5">One Memory</text>
  <text x="600" y="850" text-anchor="middle" fill="url(#grad)" font-family="Inter,sans-serif" font-size="54" font-weight="800" letter-spacing="-1.5">for All Your Agents</text>

  <!-- Subtitle -->
  <text x="600" y="894" text-anchor="middle" fill="#64748b" font-family="Inter,sans-serif" font-size="14.5">
    Universal memory layer for AI agents — self-hosted, secure, and <tspan fill="#818cf8" font-weight="600">MCP-based</tspan>.
  </text>
  <text x="600" y="918" text-anchor="middle" fill="#818cf8" font-family="Inter,sans-serif" font-size="14" font-weight="500">
    What one agent learns, every agent remembers.
  </text>

  <!-- Tagline -->
  <text x="600" y="960" text-anchor="middle" fill="#475569" font-family="Inter,sans-serif" font-size="13.5" font-style="italic">
    Agents come. Agents go. <tspan fill="#818cf8" font-weight="600">Nexus Memory stays.</tspan>
  </text>

  <!-- Features -->
  <text x="600" y="996" text-anchor="middle" fill="#475569" font-family="Inter,sans-serif" font-size="12" letter-spacing="0.5">
    ✦ MCP  ✦  Local-first  ✦  Open Source
  </text>

  <!-- Footer -->
  <text x="600" y="1175" text-anchor="middle" fill="#334155" font-family="Inter,sans-serif" font-size="10.5">
    github.com/Neboy72/nexus-memory
  </text>
</svg>
